<svg id="svg" version="1.1" xmlns="http://www.w3.org/2000/svg" xmlns:xlink="http://www.w3.org/1999/xlink" width="400" height="400" viewBox="0, 0, 400,400"><g id="svgg"><path id="path0" d="M189.696 92.500 C 187.927 94.315,186.031 96.340,185.483 97.000 C 184.935 97.660,182.442 100.290,179.943 102.844 C 170.671 112.323,158.384 125.389,156.284 128.003 C 155.602 128.853,155.702 130.259,156.511 131.205 C 156.890 131.647,157.200 132.201,157.200 132.436 C 157.200 132.671,157.920 133.554,158.800 134.400 C 159.680 135.246,160.400 136.243,160.400 136.618 C 160.400 137.206,160.491 137.224,161.077 136.749 C 161.544 136.370,161.660 136.356,161.451 136.703 C 161.147 137.209,163.108 136.554,163.600 135.985 C 163.710 135.858,164.212 135.472,164.716 135.128 C 165.220 134.784,166.480 133.707,167.516 132.736 C 168.552 131.764,169.940 130.591,170.600 130.129 C 171.260 129.666,172.880 128.225,174.200 126.926 C 175.520 125.627,177.230 124.096,178.000 123.524 C 178.770 122.953,180.445 121.490,181.721 120.274 C 182.998 119.058,184.618 117.614,185.321 117.065 C 186.025 116.516,187.860 114.883,189.400 113.436 C 192.705 110.330,192.504 110.371,194.493 112.400 C 195.356 113.280,196.183 114.002,196.331 114.005 C 196.479 114.008,198.490 115.805,200.800 118.000 C 203.110 120.195,205.149 121.992,205.331 121.995 C 205.514 121.998,206.324 122.677,207.131 123.505 C 207.939 124.333,209.770 125.998,211.199 127.205 C 212.629 128.412,214.069 129.673,214.399 130.007 C 216.125 131.753,221.523 136.402,221.837 136.413 C 222.450 136.436,223.999 137.896,224.013 138.464 C 224.022 138.839,224.182 138.794,224.547 138.314 C 224.943 137.792,225.179 137.739,225.534 138.094 C 225.889 138.449,226.000 138.436,226.000 138.040 C 226.000 137.755,226.540 137.017,227.200 136.400 C 227.860 135.783,228.400 135.063,228.400 134.800 C 228.400 134.537,228.940 133.817,229.600 133.200 C 230.260 132.583,230.800 131.791,230.800 131.440 C 230.800 131.088,230.980 130.800,231.200 130.800 C 231.420 130.800,231.600 130.480,231.600 130.088 C 231.600 129.697,231.960 129.117,232.400 128.800 C 232.840 128.483,233.200 127.903,233.200 127.512 C 233.200 127.120,233.380 126.800,233.600 126.800 C 233.820 126.800,234.000 126.440,234.000 126.000 C 234.000 125.560,234.180 125.200,234.400 125.200 C 234.620 125.200,234.800 124.660,234.800 124.000 C 234.800 123.340,234.980 122.800,235.200 122.800 C 235.420 122.800,235.600 122.440,235.600 122.000 C 235.600 121.560,235.780 121.200,236.000 121.200 C 236.220 121.200,236.400 120.480,236.400 119.600 C 236.400 118.720,236.580 118.000,236.800 118.000 C 237.020 118.000,237.200 117.280,237.200 116.400 C 237.200 115.520,237.380 114.800,237.600 114.800 C 238.278 114.800,238.041 114.069,237.300 113.876 C 236.915 113.775,237.230 113.653,238.000 113.603 C 240.981 113.413,233.332 112.460,228.580 112.430 C 222.785 112.394,222.800 112.384,222.800 116.338 L 222.800 119.316 219.600 116.025 C 217.840 114.214,216.400 112.613,216.400 112.466 C 216.400 112.319,214.645 110.383,212.500 108.165 C 210.355 105.946,207.669 103.052,206.532 101.734 C 202.224 96.740,194.513 89.200,193.714 89.200 C 193.236 89.200,191.614 90.532,189.696 92.500 M229.509 255.424 C 229.386 255.548,228.231 255.721,226.942 255.808 C 219.714 256.302,217.563 256.536,217.369 256.851 C 217.250 257.043,216.094 257.200,214.800 257.200 C 213.506 257.200,212.336 257.380,212.200 257.600 C 212.064 257.820,211.009 258.000,209.856 258.000 C 208.703 258.000,207.589 258.165,207.380 258.366 C 207.171 258.568,205.920 258.831,204.600 258.951 C 200.229 259.349,198.204 259.673,197.820 260.039 C 197.611 260.237,196.486 260.400,195.320 260.400 C 194.154 260.400,193.200 260.580,193.200 260.800 C 193.200 261.020,192.401 261.200,191.424 261.200 C 190.447 261.200,189.536 261.380,189.400 261.600 C 189.264 261.820,188.364 262.000,187.400 262.000 C 186.436 262.000,185.536 262.180,185.400 262.400 C 185.264 262.620,184.389 262.800,183.456 262.800 C 182.523 262.800,181.589 262.962,181.380 263.160 C 181.171 263.359,180.224 263.625,179.275 263.752 C 177.356 264.009,176.800 264.255,176.800 264.847 C 176.800 265.067,177.025 265.112,177.300 264.947 C 177.694 264.710,177.698 264.773,177.316 265.245 C 176.924 265.730,177.018 266.044,177.816 266.904 C 178.357 267.488,178.800 268.113,178.800 268.293 C 178.800 268.788,184.153 274.000,184.661 274.000 C 184.904 274.000,185.319 274.262,185.585 274.582 C 186.205 275.328,191.594 278.000,192.480 278.000 C 192.850 278.000,193.264 278.180,193.400 278.400 C 193.536 278.620,194.436 278.800,195.400 278.800 C 196.364 278.800,197.264 278.980,197.400 279.200 C 197.538 279.423,199.396 279.600,201.600 279.600 C 203.804 279.600,205.662 279.423,205.800 279.200 C 205.936 278.980,206.836 278.800,207.800 278.800 C 208.764 278.800,209.664 278.620,209.800 278.400 C 209.936 278.180,210.362 278.000,210.747 278.000 C 211.745 278.000,216.652 275.464,218.030 274.236 C 218.670 273.666,219.335 273.200,219.509 273.200 C 219.992 273.200,224.400 268.637,224.400 268.137 C 224.400 267.896,224.662 267.481,224.982 267.215 C 225.728 266.595,228.400 261.206,228.400 260.320 C 228.400 259.950,228.597 259.525,228.838 259.376 C 229.080 259.227,229.190 258.542,229.084 257.853 C 228.961 257.057,229.115 256.345,229.507 255.900 C 230.060 255.272,230.062 254.871,229.509 255.424 " stroke="none" fill="#77797a" fill-rule="evenodd"></path><path id="path1" d="M236.600 113.007 C 238.785 113.396,239.092 113.526,238.000 113.599 C 237.230 113.651,236.915 113.775,237.300 113.876 C 238.041 114.069,238.278 114.800,237.600 114.800 C 237.380 114.800,237.200 115.520,237.200 116.400 C 237.200 117.280,237.020 118.000,236.800 118.000 C 236.580 118.000,236.400 118.720,236.400 119.600 C 236.400 120.480,236.220 121.200,236.000 121.200 C 235.780 121.200,235.600 121.560,235.600 122.000 C 235.600 122.440,235.420 122.800,235.200 122.800 C 234.980 122.800,234.800 123.340,234.800 124.000 C 234.800 124.660,234.620 125.200,234.400 125.200 C 234.180 125.200,234.000 125.560,234.000 126.000 C 234.000 126.440,233.820 126.800,233.600 126.800 C 233.380 126.800,233.200 127.120,233.200 127.512 C 233.200 127.903,232.840 128.483,232.400 128.800 C 231.960 129.117,231.600 129.697,231.600 130.088 C 231.600 130.480,231.420 130.800,231.200 130.800 C 230.980 130.800,230.800 131.088,230.800 131.440 C 230.800 131.791,230.260 132.583,229.600 133.200 C 228.940 133.817,228.400 134.537,228.400 134.800 C 228.400 135.063,227.860 135.783,227.200 136.400 C 226.540 137.017,226.000 137.741,226.000 138.009 C 226.000 138.385,225.870 138.390,225.434 138.028 C 224.981 137.653,224.815 137.723,224.608 138.376 C 224.349 139.192,225.958 140.943,230.000 144.241 C 230.770 144.869,232.390 146.312,233.600 147.448 C 235.619 149.343,237.368 150.847,239.358 152.400 C 239.781 152.730,240.665 153.495,241.323 154.100 C 242.244 154.947,242.642 155.097,243.059 154.751 C 243.463 154.416,243.600 154.425,243.600 154.786 C 243.600 155.052,244.680 154.173,246.000 152.832 C 247.320 151.492,248.400 150.036,248.400 149.597 C 248.400 149.142,248.667 148.800,249.024 148.800 C 249.393 148.800,249.531 148.988,249.362 149.262 C 249.184 149.550,249.252 149.615,249.545 149.434 C 249.866 149.235,249.644 148.746,248.835 147.872 C 248.187 147.173,246.905 145.749,245.986 144.710 L 244.316 142.819 244.427 134.310 C 244.488 129.629,244.507 122.785,244.469 119.100 L 244.400 112.400 239.100 112.454 L 233.800 112.508 236.600 113.007 M154.508 129.137 C 153.358 130.382,151.468 132.418,150.308 133.662 C 149.149 134.906,146.400 137.870,144.200 140.249 C 142.000 142.628,139.691 145.070,139.070 145.676 C 138.448 146.282,138.058 146.971,138.204 147.206 C 138.350 147.442,138.273 147.871,138.033 148.160 C 137.703 148.558,137.839 148.868,138.598 149.438 C 139.149 149.851,139.600 150.423,139.600 150.708 C 139.600 152.274,143.206 154.594,143.880 153.463 C 144.056 153.168,144.740 152.595,145.400 152.191 C 146.060 151.787,146.780 151.263,147.000 151.028 C 147.220 150.793,148.210 149.946,149.200 149.146 C 150.190 148.347,151.720 146.981,152.601 146.113 C 153.481 145.244,154.403 144.458,154.650 144.366 C 155.951 143.883,163.263 136.448,162.340 136.546 C 161.805 136.603,161.149 136.784,160.883 136.949 C 160.581 137.135,160.400 137.002,160.400 136.592 C 160.400 136.232,159.680 135.246,158.800 134.400 C 157.920 133.554,157.200 132.671,157.200 132.436 C 157.200 132.201,156.899 131.658,156.532 131.229 C 155.854 130.437,155.524 128.400,156.073 128.400 C 156.237 128.400,156.565 128.040,156.800 127.600 C 157.543 126.211,156.672 126.796,154.508 129.137 M218.800 134.134 C 218.800 134.496,221.624 137.000,222.033 137.000 C 222.198 137.000,222.708 137.433,223.166 137.961 C 223.625 138.490,224.000 138.699,224.000 138.425 C 224.000 137.882,222.431 136.435,221.819 136.413 C 221.610 136.406,220.845 135.825,220.119 135.122 C 219.394 134.418,218.800 133.974,218.800 134.134 M164.229 135.429 C 163.805 135.738,163.536 136.069,163.630 136.163 C 163.724 136.257,164.148 136.081,164.571 135.771 C 164.995 135.462,165.264 135.131,165.170 135.037 C 165.076 134.943,164.652 135.119,164.229 135.429 M241.000 254.067 C 239.020 254.247,235.690 254.502,233.600 254.632 C 231.510 254.763,229.620 255.060,229.400 255.293 C 229.123 255.587,229.184 255.617,229.600 255.390 C 230.078 255.129,230.067 255.218,229.545 255.831 C 229.120 256.331,228.958 257.039,229.084 257.853 C 229.190 258.542,229.080 259.227,228.838 259.376 C 228.597 259.525,228.400 259.950,228.400 260.320 C 228.400 261.206,225.728 266.595,224.982 267.215 C 224.662 267.481,224.400 267.896,224.400 268.137 C 224.400 268.637,219.992 273.200,219.509 273.200 C 219.335 273.200,218.670 273.666,218.030 274.236 C 216.652 275.464,211.745 278.000,210.747 278.000 C 210.362 278.000,209.936 278.180,209.800 278.400 C 209.664 278.620,208.764 278.800,207.800 278.800 C 206.836 278.800,205.936 278.980,205.800 279.200 C 205.662 279.423,203.804 279.600,201.600 279.600 C 199.396 279.600,197.538 279.423,197.400 279.200 C 197.264 278.980,196.364 278.800,195.400 278.800 C 194.436 278.800,193.536 278.620,193.400 278.400 C 193.264 278.180,192.850 278.000,192.480 278.000 C 191.594 278.000,186.205 275.328,185.585 274.582 C 185.319 274.262,184.894 274.000,184.640 274.000 C 184.134 274.000,178.800 268.769,178.800 268.273 C 178.800 268.103,178.357 267.488,177.816 266.904 C 177.018 266.044,176.924 265.730,177.316 265.245 C 177.698 264.773,177.694 264.710,177.300 264.947 C 177.022 265.114,176.800 265.053,176.800 264.811 C 176.800 264.571,177.205 264.211,177.700 264.012 C 178.352 263.750,178.414 263.644,177.924 263.625 C 177.552 263.611,177.136 263.780,177.000 264.000 C 176.864 264.220,176.054 264.400,175.200 264.400 C 174.346 264.400,173.536 264.580,173.400 264.800 C 173.264 265.020,172.544 265.200,171.800 265.200 C 171.056 265.200,170.348 265.361,170.226 265.558 C 170.105 265.755,169.329 266.013,168.503 266.132 C 165.557 266.556,163.387 267.059,162.553 267.512 C 162.087 267.765,161.592 267.858,161.453 267.719 C 161.314 267.580,161.200 268.202,161.200 269.100 C 161.200 269.998,161.342 270.793,161.515 270.867 C 161.688 270.940,162.322 272.016,162.924 273.259 C 163.526 274.501,164.284 275.738,164.609 276.008 C 164.934 276.277,165.200 276.722,165.200 276.996 C 165.200 277.573,174.260 286.800,174.827 286.800 C 175.036 286.800,175.729 287.266,176.368 287.835 C 177.694 289.016,184.242 292.400,185.202 292.400 C 185.553 292.400,186.011 292.549,186.220 292.730 C 186.429 292.912,187.410 293.293,188.400 293.576 C 189.390 293.859,190.560 294.241,191.000 294.425 C 193.920 295.642,210.893 295.593,212.180 294.363 C 212.389 294.163,212.963 294.000,213.456 294.000 C 213.949 294.000,214.464 293.820,214.600 293.600 C 214.736 293.380,215.276 293.200,215.800 293.200 C 216.324 293.200,216.864 293.020,217.000 292.800 C 217.136 292.580,217.572 292.400,217.968 292.400 C 218.682 292.400,224.774 289.432,225.186 288.883 C 225.304 288.727,225.895 288.344,226.500 288.032 C 227.105 287.720,227.600 287.315,227.600 287.132 C 227.600 286.950,227.850 286.800,228.155 286.800 C 228.835 286.800,238.000 277.661,238.000 276.983 C 238.000 276.716,238.258 276.284,238.574 276.022 C 239.319 275.403,243.600 266.800,243.600 265.921 C 243.600 265.550,243.760 265.148,243.956 265.027 C 244.290 264.821,244.432 264.232,245.047 260.500 C 245.183 259.675,245.463 258.790,245.669 258.533 C 246.333 257.705,245.962 253.589,245.232 253.669 C 244.884 253.707,242.980 253.886,241.000 254.067 " stroke="none" fill="#5e5f61" fill-rule="evenodd"></path><path id="path2" d="M223.600 143.743 C 223.600 144.156,225.612 146.122,225.820 145.913 C 225.914 145.819,225.454 145.226,224.796 144.596 C 224.138 143.966,223.600 143.582,223.600 143.743 M229.400 149.600 C 230.483 150.700,231.460 151.600,231.570 151.600 C 231.680 151.600,230.883 150.700,229.800 149.600 C 228.717 148.500,227.740 147.600,227.630 147.600 C 227.520 147.600,228.317 148.500,229.400 149.600 M234.196 154.396 C 234.826 155.054,235.419 155.514,235.513 155.420 C 235.722 155.212,233.756 153.200,233.343 153.200 C 233.182 153.200,233.566 153.738,234.196 154.396 M240.202 160.402 C 240.602 160.844,241.011 161.122,241.112 161.021 C 241.328 160.805,240.188 159.600,239.767 159.600 C 239.607 159.600,239.803 159.961,240.202 160.402 M245.002 165.202 C 245.402 165.644,245.811 165.922,245.912 165.821 C 246.128 165.605,244.988 164.400,244.567 164.400 C 244.407 164.400,244.603 164.761,245.002 165.202 M130.673 172.300 C 128.679 174.225,119.432 183.429,110.124 192.753 C 93.402 209.505,92.174 210.919,93.600 211.800 C 93.820 211.936,94.000 212.926,94.000 214.000 C 94.000 215.074,94.180 216.064,94.400 216.200 C 94.620 216.336,94.800 217.056,94.800 217.800 C 94.800 218.544,94.980 219.264,95.200 219.400 C 95.420 219.536,95.600 220.256,95.600 221.000 C 95.600 221.744,95.780 222.464,96.000 222.600 C 96.220 222.736,96.400 223.276,96.400 223.800 C 96.400 224.324,96.580 224.864,96.800 225.000 C 97.020 225.136,97.200 225.777,97.200 226.424 C 97.200 227.071,97.380 227.600,97.600 227.600 C 97.820 227.600,98.000 228.039,98.000 228.576 C 98.000 229.113,98.180 229.664,98.400 229.800 C 98.620 229.936,98.800 230.476,98.800 231.000 C 98.800 231.524,98.980 232.064,99.200 232.200 C 99.420 232.336,99.600 232.797,99.600 233.224 C 99.600 233.651,99.780 234.000,100.000 234.000 C 100.220 234.000,100.400 234.272,100.400 234.605 C 100.400 234.938,100.564 235.523,100.764 235.905 C 100.965 236.287,102.138 238.670,103.371 241.200 C 105.903 246.394,106.865 248.140,107.300 248.333 C 107.465 248.407,107.600 248.638,107.600 248.847 C 107.600 249.317,112.827 257.099,113.889 258.210 C 114.315 258.656,114.969 259.487,115.343 260.057 L 116.022 261.092 111.511 263.360 C 109.030 264.607,106.280 266.041,105.400 266.545 C 104.520 267.049,102.720 268.050,101.400 268.769 C 98.271 270.474,98.100 270.632,98.100 271.827 C 98.100 272.815,100.139 275.327,100.582 274.885 C 100.702 274.765,100.800 274.780,100.800 274.918 C 100.800 275.056,100.395 275.547,99.900 276.009 C 98.871 276.970,99.325 276.897,102.000 275.674 C 102.770 275.322,103.940 274.969,104.600 274.888 C 105.260 274.808,105.971 274.575,106.180 274.371 C 106.389 274.167,106.974 274.000,107.480 274.000 C 107.986 274.000,108.400 273.820,108.400 273.600 C 108.400 273.380,108.839 273.200,109.376 273.200 C 109.913 273.200,110.464 273.020,110.600 272.800 C 110.736 272.580,111.377 272.400,112.024 272.400 C 112.671 272.400,113.200 272.220,113.200 272.000 C 113.200 271.780,113.639 271.600,114.176 271.600 C 114.713 271.600,115.264 271.420,115.400 271.200 C 115.536 270.980,115.999 270.800,116.429 270.800 C 116.859 270.800,117.523 270.638,117.905 270.439 C 118.287 270.240,119.410 269.863,120.400 269.600 C 121.390 269.337,122.513 268.960,122.895 268.761 C 123.277 268.562,123.941 268.400,124.371 268.400 C 124.801 268.400,125.264 268.220,125.400 268.000 C 125.536 267.780,126.076 267.600,126.600 267.600 C 127.124 267.600,127.664 267.420,127.800 267.200 C 127.936 266.980,128.476 266.800,129.000 266.800 C 129.524 266.800,130.064 266.620,130.200 266.400 C 130.336 266.180,130.966 266.000,131.600 266.000 C 132.234 266.000,132.864 265.820,133.000 265.600 C 133.136 265.380,133.676 265.200,134.200 265.200 C 134.724 265.200,135.264 265.020,135.400 264.800 C 135.536 264.580,136.076 264.400,136.600 264.400 C 137.124 264.400,137.664 264.220,137.800 264.000 C 137.936 263.780,138.656 263.600,139.400 263.600 C 140.144 263.600,140.864 263.420,141.000 263.200 C 141.136 262.980,141.777 262.800,142.424 262.800 C 143.071 262.800,143.600 262.620,143.600 262.400 C 143.600 262.180,144.320 262.000,145.200 262.000 C 146.080 262.000,146.800 261.820,146.800 261.600 C 146.800 261.380,147.419 261.200,148.176 261.200 C 148.933 261.200,149.664 261.020,149.800 260.800 C 149.936 260.580,150.566 260.400,151.200 260.400 C 151.834 260.400,152.464 260.220,152.600 260.000 C 152.736 259.780,153.456 259.600,154.200 259.600 C 154.944 259.600,155.664 259.420,155.800 259.200 C 155.936 258.980,156.746 258.800,157.600 258.800 C 158.454 258.800,159.264 258.620,159.400 258.400 C 159.536 258.180,160.256 258.000,161.000 258.000 C 161.744 258.000,162.464 257.820,162.600 257.600 C 162.736 257.380,163.546 257.200,164.400 257.200 C 165.254 257.200,166.064 257.020,166.200 256.800 C 166.336 256.580,167.236 256.400,168.200 256.400 C 169.164 256.400,170.064 256.220,170.200 256.000 C 170.336 255.780,171.236 255.600,172.200 255.600 C 173.164 255.600,174.064 255.420,174.200 255.200 C 174.336 254.980,175.326 254.800,176.400 254.800 C 177.474 254.800,178.464 254.620,178.600 254.400 C 178.736 254.180,179.726 254.000,180.800 254.000 C 181.874 254.000,182.864 253.820,183.000 253.600 C 183.136 253.380,184.216 253.200,185.400 253.200 C 186.584 253.200,187.664 253.020,187.800 252.800 C 187.936 252.580,189.016 252.400,190.200 252.400 C 191.384 252.400,192.464 252.220,192.600 252.000 C 192.736 251.780,193.996 251.600,195.400 251.600 C 196.804 251.600,198.064 251.420,198.200 251.200 C 198.336 250.980,199.686 250.800,201.200 250.800 C 202.714 250.800,204.064 250.620,204.200 250.400 C 204.336 250.180,205.686 250.000,207.200 250.000 C 208.714 250.000,210.064 249.820,210.200 249.600 C 210.336 249.380,212.111 249.200,214.144 249.200 C 216.177 249.200,218.011 249.031,218.220 248.825 C 218.429 248.618,220.580 248.350,223.000 248.229 C 225.420 248.108,230.190 247.818,233.600 247.584 C 247.762 246.612,286.000 246.518,302.500 247.415 C 305.775 247.593,307.200 247.538,307.200 247.235 C 307.200 246.996,307.468 246.800,307.795 246.800 C 308.563 246.800,310.021 245.557,309.756 245.129 C 309.644 244.948,309.743 244.800,309.976 244.800 C 310.209 244.800,310.400 244.637,310.400 244.437 C 310.400 244.238,310.026 244.173,309.570 244.292 C 308.927 244.460,308.769 244.344,308.870 243.776 C 308.977 243.171,308.684 243.016,307.200 242.889 C 306.210 242.805,305.229 242.570,305.020 242.368 C 304.811 242.166,303.787 242.000,302.744 242.000 C 301.701 242.000,300.736 241.820,300.600 241.600 C 300.464 241.380,299.373 241.200,298.176 241.200 C 296.979 241.200,296.000 241.020,296.000 240.800 C 296.000 240.580,295.013 240.400,293.807 240.400 L 291.614 240.400 292.407 238.988 C 292.843 238.211,293.200 237.311,293.200 236.988 C 293.200 236.665,293.380 236.400,293.600 236.400 C 293.820 236.400,294.000 236.051,294.000 235.624 C 294.000 235.197,294.180 234.736,294.400 234.600 C 294.620 234.464,294.800 233.913,294.800 233.376 C 294.800 232.839,294.980 232.400,295.200 232.400 C 295.420 232.400,295.600 232.051,295.600 231.624 C 295.600 231.197,295.780 230.736,296.000 230.600 C 296.220 230.464,296.400 229.924,296.400 229.400 C 296.400 228.876,296.580 228.336,296.800 228.200 C 297.020 228.064,297.200 227.524,297.200 227.000 C 297.200 226.476,297.380 225.936,297.600 225.800 C 297.820 225.664,298.000 225.124,298.000 224.600 C 298.000 224.076,298.180 223.536,298.400 223.400 C 298.620 223.264,298.800 222.544,298.800 221.800 C 298.800 221.056,298.980 220.336,299.200 220.200 C 300.154 219.610,299.146 218.396,291.163 210.522 C 286.523 205.945,276.349 195.855,268.554 188.100 C 253.741 173.364,253.631 173.267,253.915 175.200 C 254.012 175.860,254.286 176.400,254.525 176.400 C 254.813 176.400,254.798 176.562,254.480 176.880 C 254.216 177.144,254.000 177.684,254.000 178.080 C 254.000 178.476,253.820 178.800,253.600 178.800 C 253.380 178.800,253.200 179.700,253.200 180.800 C 253.200 181.900,253.020 182.800,252.800 182.800 C 252.580 182.800,252.400 183.520,252.400 184.400 C 252.400 185.280,252.220 186.000,252.000 186.000 C 251.780 186.000,251.600 186.461,251.600 187.024 C 251.600 187.736,251.448 187.956,251.100 187.747 C 250.760 187.543,250.776 187.663,251.149 188.123 C 252.829 190.194,249.348 188.092,246.211 185.140 C 245.337 184.318,244.547 183.720,244.456 183.811 C 244.255 184.011,246.473 186.117,248.400 187.555 C 249.170 188.130,250.610 189.413,251.600 190.406 C 252.590 191.399,254.255 192.906,255.300 193.754 L 257.200 195.296 257.200 215.848 L 257.200 236.400 251.624 236.400 C 248.337 236.400,245.946 236.236,245.800 236.000 C 245.647 235.753,242.204 235.600,236.800 235.600 C 231.396 235.600,227.953 235.753,227.800 236.000 C 227.649 236.244,224.604 236.400,220.000 236.400 C 215.396 236.400,212.351 236.556,212.200 236.800 C 212.061 237.025,210.137 237.200,207.800 237.200 C 205.463 237.200,203.539 237.375,203.400 237.600 C 203.264 237.820,201.633 238.000,199.776 238.000 C 197.792 238.000,196.400 238.165,196.400 238.400 C 196.400 238.628,195.208 238.800,193.624 238.800 C 192.097 238.800,190.736 238.980,190.600 239.200 C 190.464 239.420,189.193 239.600,187.776 239.600 C 186.325 239.600,185.200 239.775,185.200 240.000 C 185.200 240.222,184.133 240.400,182.800 240.400 C 181.467 240.400,180.400 240.578,180.400 240.800 C 180.400 241.020,179.500 241.200,178.400 241.200 C 177.300 241.200,176.400 241.380,176.400 241.600 C 176.400 241.820,175.500 242.000,174.400 242.000 C 173.300 242.000,172.400 242.180,172.400 242.400 C 172.400 242.620,171.691 242.800,170.824 242.800 C 169.957 242.800,169.136 242.980,169.000 243.200 C 168.864 243.420,167.953 243.600,166.976 243.600 C 165.999 243.600,165.200 243.780,165.200 244.000 C 165.200 244.220,164.480 244.400,163.600 244.400 C 162.720 244.400,162.000 244.580,162.000 244.800 C 162.000 245.020,161.381 245.200,160.624 245.200 C 159.867 245.200,159.136 245.380,159.000 245.600 C 158.864 245.820,158.234 246.000,157.600 246.000 C 156.966 246.000,156.336 246.180,156.200 246.400 C 156.064 246.620,155.333 246.800,154.576 246.800 C 153.819 246.800,153.200 246.980,153.200 247.200 C 153.200 247.420,152.671 247.600,152.024 247.600 C 151.377 247.600,150.736 247.780,150.600 248.000 C 150.464 248.220,149.924 248.400,149.400 248.400 C 148.876 248.400,148.336 248.580,148.200 248.800 C 148.064 249.020,147.434 249.200,146.800 249.200 C 146.166 249.200,145.536 249.380,145.400 249.600 C 145.264 249.820,144.623 250.000,143.976 250.000 C 143.329 250.000,142.800 250.180,142.800 250.400 C 142.800 250.620,142.181 250.800,141.424 250.800 C 140.667 250.800,139.936 250.980,139.800 251.200 C 139.664 251.420,138.944 251.600,138.200 251.600 C 137.456 251.600,136.736 251.780,136.600 252.000 C 136.464 252.220,135.823 252.400,135.176 252.400 C 134.529 252.400,134.000 252.580,134.000 252.800 C 134.000 253.020,133.280 253.200,132.400 253.200 C 131.520 253.200,130.800 253.380,130.800 253.600 C 130.800 253.820,130.271 254.000,129.624 254.000 C 128.977 254.000,128.336 254.180,128.200 254.400 C 127.185 256.043,126.800 254.669,126.800 249.400 C 126.800 246.260,126.959 244.000,127.180 244.000 C 127.411 244.000,127.571 238.824,127.589 230.756 C 127.607 222.972,127.780 217.211,128.010 216.782 C 128.234 216.363,128.400 211.730,128.400 205.883 L 128.400 195.714 130.729 193.557 C 133.268 191.207,133.937 189.841,132.863 189.206 C 132.279 188.862,132.272 188.762,132.800 188.377 C 133.252 188.047,133.277 187.889,132.900 187.736 C 132.625 187.625,132.400 187.008,132.400 186.367 C 132.400 185.725,132.220 185.200,132.000 185.200 C 131.780 185.200,131.600 184.480,131.600 183.600 C 131.600 182.720,131.420 182.000,131.200 182.000 C 130.980 182.000,130.800 180.997,130.800 179.771 C 130.800 178.324,130.590 177.333,130.200 176.943 C 129.554 176.297,129.405 175.600,129.913 175.600 C 130.085 175.600,130.199 175.105,130.167 174.500 C 130.119 173.633,130.625 172.914,132.553 171.104 C 133.899 169.842,134.842 168.807,134.648 168.804 C 134.455 168.802,132.666 170.375,130.673 172.300 M249.200 169.401 C 249.200 169.512,249.940 170.271,250.845 171.088 C 251.750 171.906,252.639 172.940,252.820 173.387 C 253.102 174.082,253.153 174.097,253.175 173.489 C 253.189 173.099,252.395 171.974,251.411 170.989 C 249.727 169.306,249.200 168.927,249.200 169.401 M139.478 185.078 C 138.207 186.300,137.237 187.370,137.323 187.456 C 137.409 187.542,138.520 186.613,139.791 185.391 C 141.063 184.170,142.033 183.099,141.947 183.013 C 141.861 182.927,140.750 183.856,139.478 185.078 M97.000 271.600 C 96.860 271.827,96.590 271.917,96.400 271.800 C 96.210 271.683,95.935 271.782,95.788 272.020 C 95.377 272.684,95.691 272.732,96.955 272.201 C 97.607 271.927,97.924 271.600,97.683 271.451 C 97.448 271.306,97.140 271.373,97.000 271.600 " stroke="none" fill="#850e1c" fill-rule="evenodd"></path><path id="path3" d="M191.189 114.290 C 190.645 114.669,189.378 115.794,188.374 116.790 C 187.370 117.785,186.212 118.792,185.801 119.027 C 185.390 119.261,184.861 119.794,184.627 120.210 C 183.940 121.428,183.301 122.000,182.629 122.000 C 182.283 122.000,181.998 122.225,181.996 122.500 C 181.994 122.775,181.098 123.794,180.005 124.764 C 178.913 125.734,174.673 129.829,170.584 133.864 C 166.494 137.899,163.025 141.205,162.874 141.211 C 162.466 141.228,158.801 144.702,158.796 145.077 C 158.794 145.255,157.877 146.210,156.759 147.200 C 155.642 148.190,151.144 152.564,146.764 156.920 C 142.384 161.276,138.800 164.710,138.800 164.550 C 138.800 164.391,138.356 164.678,137.812 165.188 C 137.269 165.699,136.937 166.298,137.074 166.520 C 137.211 166.742,137.136 166.808,136.907 166.666 C 136.678 166.525,136.245 166.711,135.945 167.081 C 135.477 167.659,135.484 167.708,136.000 167.426 C 136.330 167.247,135.468 168.208,134.085 169.564 C 132.656 170.964,131.377 171.909,131.123 171.752 C 130.864 171.592,130.788 171.657,130.942 171.906 C 131.088 172.142,130.965 172.578,130.669 172.874 C 130.373 173.170,130.152 173.904,130.179 174.506 C 130.205 175.108,130.085 175.600,129.913 175.600 C 129.405 175.600,129.554 176.297,130.200 176.943 C 130.590 177.333,130.800 178.324,130.800 179.771 C 130.800 180.997,130.980 182.000,131.200 182.000 C 131.420 182.000,131.600 182.720,131.600 183.600 C 131.600 184.480,131.780 185.200,132.000 185.200 C 132.220 185.200,132.400 185.725,132.400 186.367 C 132.400 187.008,132.625 187.625,132.900 187.736 C 133.277 187.889,133.252 188.047,132.800 188.377 C 132.273 188.761,132.284 188.864,132.883 189.218 C 133.303 189.466,133.473 189.887,133.324 190.311 C 133.191 190.690,133.619 190.416,134.275 189.701 C 134.932 188.987,135.589 188.522,135.735 188.668 C 135.881 188.814,136.000 188.713,136.000 188.443 C 136.000 188.173,136.192 188.072,136.427 188.217 C 136.662 188.362,136.951 188.147,137.071 187.740 C 137.246 187.142,139.706 184.795,144.134 181.000 C 147.885 177.786,150.889 175.113,152.115 173.900 C 152.949 173.075,153.788 172.400,153.979 172.400 C 154.170 172.400,156.108 170.645,158.286 168.500 C 160.463 166.355,162.906 164.099,163.714 163.486 C 164.522 162.873,166.271 161.304,167.600 160.000 C 168.929 158.696,170.679 157.127,171.488 156.514 C 172.298 155.901,174.216 154.185,175.750 152.700 C 177.285 151.215,178.673 150.000,178.835 150.000 C 178.997 150.000,180.900 148.265,183.065 146.145 C 185.229 144.025,187.628 141.820,188.394 141.245 C 189.161 140.670,190.387 139.611,191.117 138.891 C 192.718 137.313,192.446 137.185,197.323 141.800 C 198.253 142.680,199.693 143.909,200.522 144.531 C 201.351 145.154,203.565 147.179,205.443 149.031 C 207.321 150.884,208.995 152.400,209.162 152.400 C 209.329 152.400,210.955 153.840,212.775 155.600 C 214.595 157.360,216.167 158.800,216.268 158.800 C 216.456 158.800,217.585 159.811,220.516 162.605 C 221.442 163.488,222.830 164.653,223.600 165.194 C 224.370 165.735,225.815 166.993,226.812 167.989 C 227.808 168.985,229.784 170.790,231.203 172.000 C 232.621 173.210,234.596 174.984,235.591 175.943 C 236.586 176.902,238.028 178.162,238.795 178.743 C 239.562 179.324,240.825 180.430,241.600 181.200 C 242.375 181.970,243.638 183.085,244.405 183.679 C 245.172 184.272,246.610 185.484,247.600 186.372 C 248.590 187.261,249.546 187.990,249.724 187.994 C 249.902 187.997,249.960 188.142,249.852 188.315 C 249.745 188.488,250.117 188.668,250.677 188.715 C 251.588 188.790,251.638 188.727,251.149 188.123 C 250.775 187.663,250.760 187.542,251.100 187.747 C 251.448 187.956,251.600 187.736,251.600 187.024 C 251.600 186.461,251.780 186.000,252.000 186.000 C 252.220 186.000,252.400 185.280,252.400 184.400 C 252.400 183.520,252.580 182.800,252.800 182.800 C 253.020 182.800,253.200 181.900,253.200 180.800 C 253.200 179.700,253.380 178.800,253.600 178.800 C 253.820 178.800,254.000 178.451,254.000 178.024 C 254.000 177.597,254.199 177.124,254.443 176.974 C 254.738 176.791,254.749 176.616,254.476 176.447 C 254.251 176.308,253.978 175.565,253.870 174.797 C 253.762 174.029,253.654 173.310,253.631 173.200 C 253.607 173.090,253.413 173.270,253.200 173.600 C 252.862 174.122,252.811 174.116,252.806 173.551 C 252.803 173.194,251.990 172.155,251.000 171.243 C 250.010 170.330,249.200 169.469,249.200 169.328 C 249.200 169.187,244.655 164.572,239.100 159.071 C 233.545 153.570,229.045 148.918,229.100 148.734 C 229.155 148.550,229.003 148.445,228.763 148.500 C 228.522 148.555,228.117 148.248,227.863 147.817 C 227.172 146.649,226.511 146.000,226.010 146.000 C 225.511 146.000,223.610 144.213,223.582 143.718 C 223.573 143.543,221.818 141.718,219.682 139.662 C 217.547 137.606,211.818 132.026,206.950 127.262 C 196.643 117.174,192.852 113.600,192.460 113.600 C 192.305 113.600,191.733 113.910,191.189 114.290 M174.092 194.729 L 174.200 203.400 182.800 203.400 L 191.400 203.400 191.508 195.251 C 191.645 184.964,192.641 185.966,182.333 186.017 L 173.985 186.057 174.092 194.729 M194.800 194.781 L 194.800 203.600 203.151 203.600 C 213.465 203.600,212.472 204.604,212.320 194.335 L 212.200 186.200 203.500 186.081 L 194.800 185.962 194.800 194.781 M174.092 214.300 L 174.200 222.600 182.800 222.600 L 191.400 222.600 191.508 214.300 L 191.616 206.000 182.800 206.000 L 173.984 206.000 174.092 214.300 M194.892 214.292 L 195.000 222.600 202.910 222.708 C 213.433 222.853,212.467 223.739,212.320 214.075 L 212.200 206.200 203.492 206.092 L 194.784 205.984 194.892 214.292 " stroke="none" fill="#b41b24" fill-rule="evenodd"></path><path id="path4" d="M184.600 97.358 C 184.160 97.858,182.990 99.128,182.000 100.180 C 181.010 101.231,180.560 101.857,181.000 101.570 C 182.082 100.864,186.220 96.394,185.763 96.424 C 185.564 96.438,185.040 96.858,184.600 97.358 M217.622 113.876 C 218.380 114.688,219.234 115.610,219.519 115.924 C 219.805 116.238,220.105 116.429,220.186 116.347 C 220.385 116.148,216.928 112.400,216.545 112.400 C 216.379 112.400,216.863 113.064,217.622 113.876 M163.321 119.507 C 161.738 121.195,160.511 122.645,160.595 122.728 C 160.678 122.812,161.344 122.262,162.073 121.506 C 166.149 117.283,166.931 116.402,166.583 116.419 C 166.372 116.429,164.905 117.818,163.321 119.507 M244.482 130.582 L 244.442 142.956 246.049 144.778 C 246.933 145.780,248.187 147.173,248.835 147.872 C 249.644 148.746,249.866 149.235,249.545 149.434 C 249.252 149.615,249.184 149.550,249.362 149.262 C 249.531 148.988,249.393 148.800,249.024 148.800 C 248.667 148.800,248.400 149.142,248.400 149.597 C 248.400 150.036,247.320 151.492,246.000 152.832 C 244.680 154.173,243.600 155.052,243.600 154.786 C 243.600 154.431,243.460 154.419,243.073 154.739 C 242.675 155.070,242.213 154.887,241.173 153.989 C 237.236 150.583,236.595 150.072,236.449 150.218 C 236.240 150.426,241.678 155.600,242.105 155.600 C 242.286 155.600,243.822 156.999,245.517 158.708 C 247.213 160.417,249.230 162.259,250.000 162.800 C 250.770 163.341,252.750 165.141,254.400 166.800 C 256.050 168.459,258.030 170.259,258.800 170.800 C 259.570 171.341,261.550 173.141,263.200 174.800 C 264.850 176.459,266.830 178.260,267.600 178.804 C 268.370 179.348,270.279 181.070,271.841 182.631 C 273.404 184.193,275.375 185.994,276.221 186.635 C 277.067 187.276,279.369 189.375,281.338 191.300 C 283.306 193.225,285.064 194.800,285.244 194.800 C 285.424 194.800,287.402 196.600,289.639 198.800 C 291.877 201.000,293.866 202.800,294.059 202.800 C 294.253 202.800,295.911 204.300,297.744 206.133 C 299.577 207.965,301.773 209.990,302.624 210.633 C 303.475 211.275,305.407 213.015,306.916 214.500 C 308.426 215.985,309.842 217.200,310.062 217.200 C 310.282 217.200,311.154 217.920,311.999 218.799 C 312.844 219.678,313.948 220.443,314.451 220.499 C 315.872 220.656,315.861 219.365,314.431 218.029 C 313.754 217.397,313.200 216.692,313.200 216.464 C 313.200 216.236,311.620 214.457,309.689 212.511 C 307.758 210.566,305.736 208.350,305.195 207.587 C 304.654 206.824,302.136 204.130,299.600 201.600 C 297.064 199.070,294.544 196.370,294.000 195.600 C 293.457 194.830,291.117 192.310,288.800 190.000 C 286.483 187.690,284.143 185.170,283.600 184.400 C 283.057 183.630,280.720 181.107,278.406 178.794 C 276.093 176.481,273.673 173.886,273.029 173.028 C 272.385 172.170,270.045 169.648,267.829 167.423 C 265.613 165.199,263.273 162.678,262.628 161.822 C 261.983 160.965,259.418 158.227,256.928 155.736 C 254.438 153.246,252.400 151.053,252.400 150.862 C 252.400 150.672,250.780 148.864,248.800 146.844 L 245.200 143.171 245.172 131.485 C 245.156 125.058,245.004 119.442,244.833 119.004 C 244.662 118.566,244.504 123.776,244.482 130.582 M205.222 122.270 C 205.234 122.451,205.774 123.019,206.422 123.530 C 207.070 124.042,207.590 124.312,207.578 124.130 C 207.566 123.949,207.026 123.381,206.378 122.870 C 205.730 122.358,205.210 122.088,205.222 122.270 M176.229 125.029 C 175.805 125.338,175.536 125.669,175.630 125.763 C 175.724 125.857,176.148 125.681,176.571 125.371 C 176.995 125.062,177.264 124.731,177.170 124.637 C 177.076 124.543,176.652 124.719,176.229 125.029 M213.200 129.429 C 213.200 129.698,213.890 130.370,215.002 131.185 C 215.441 131.506,215.271 131.191,214.625 130.485 C 213.440 129.189,213.200 129.011,213.200 129.429 M168.618 131.818 C 167.987 132.360,167.545 132.878,167.635 132.968 C 167.726 133.058,168.316 132.688,168.946 132.145 C 169.577 131.603,170.019 131.085,169.929 130.996 C 169.839 130.906,169.249 131.276,168.618 131.818 M149.660 133.842 C 149.362 134.178,149.199 134.532,149.295 134.629 C 149.392 134.726,149.798 134.444,150.198 134.002 C 150.597 133.561,150.761 133.207,150.562 133.215 C 150.363 133.224,149.957 133.505,149.660 133.842 M144.735 138.919 C 140.261 143.708,138.662 145.596,138.888 145.821 C 138.998 145.932,139.545 145.432,140.104 144.711 C 140.663 143.990,142.241 142.230,143.611 140.800 C 148.163 136.050,148.560 135.600,148.178 135.619 C 147.970 135.629,146.421 137.114,144.735 138.919 M161.840 137.840 C 160.986 138.600,160.371 139.304,160.472 139.405 C 160.573 139.506,161.345 138.958,162.187 138.187 C 163.029 137.415,163.644 136.711,163.555 136.622 C 163.465 136.532,162.694 137.080,161.840 137.840 M222.000 137.453 C 222.000 137.810,224.131 139.602,224.325 139.408 C 224.502 139.231,222.564 137.200,222.218 137.200 C 222.098 137.200,222.000 137.314,222.000 137.453 M229.200 143.776 C 229.200 144.174,231.810 146.601,233.400 147.683 C 234.321 148.309,234.224 148.138,232.985 146.949 C 230.259 144.335,229.200 143.447,229.200 143.776 M153.221 145.412 C 152.683 145.942,152.331 146.464,152.438 146.572 C 152.658 146.791,154.800 145.051,154.800 144.653 C 154.800 144.165,154.191 144.457,153.221 145.412 M128.306 156.125 C 123.304 161.226,118.714 166.027,118.106 166.793 C 117.498 167.559,113.130 172.061,108.400 176.797 C 103.670 181.533,98.810 186.564,97.600 187.977 C 96.390 189.389,91.049 194.916,85.731 200.259 C 80.412 205.602,75.552 210.648,74.931 211.472 C 74.309 212.297,72.405 214.385,70.700 216.113 C 67.481 219.376,66.656 221.200,68.400 221.200 C 68.840 221.200,69.200 221.050,69.200 220.868 C 69.200 220.685,69.689 220.280,70.288 219.968 C 70.886 219.655,72.254 218.545,73.328 217.500 C 74.402 216.455,75.451 215.600,75.660 215.600 C 75.868 215.600,77.245 214.381,78.719 212.891 C 80.194 211.402,82.030 209.740,82.800 209.200 C 83.570 208.660,85.370 207.040,86.800 205.600 C 88.230 204.160,90.030 202.541,90.800 202.001 C 91.570 201.461,93.190 200.021,94.400 198.800 C 95.610 197.579,97.230 196.139,98.000 195.599 C 98.770 195.059,100.570 193.440,102.000 192.000 C 103.430 190.560,105.230 188.940,106.000 188.400 C 106.770 187.860,108.606 186.198,110.081 184.709 C 111.555 183.219,112.921 182.000,113.117 182.000 C 113.313 182.000,114.919 180.588,116.687 178.862 C 118.455 177.136,120.509 175.295,121.251 174.771 C 121.993 174.246,123.770 172.640,125.200 171.200 C 126.630 169.760,128.430 168.140,129.200 167.600 C 129.970 167.060,131.770 165.440,133.200 164.000 C 134.630 162.560,136.430 160.940,137.200 160.400 C 137.970 159.860,139.806 158.198,141.281 156.709 C 142.755 155.219,144.105 154.000,144.281 154.000 C 144.738 154.000,149.350 149.617,149.128 149.394 C 149.026 149.293,148.415 149.709,147.771 150.319 C 147.127 150.929,146.060 151.766,145.400 152.177 C 144.740 152.589,144.056 153.168,143.880 153.463 C 143.206 154.594,139.600 152.274,139.600 150.708 C 139.600 150.423,139.149 149.851,138.598 149.438 C 137.839 148.868,137.703 148.558,138.033 148.160 C 138.459 147.647,138.226 146.775,137.676 146.825 C 137.524 146.839,133.308 151.024,128.306 156.125 M280.007 199.350 C 282.163 201.750,288.178 207.555,288.340 207.393 C 288.420 207.314,288.044 206.833,287.506 206.324 C 286.967 205.816,284.746 203.690,282.570 201.600 C 280.394 199.510,279.241 198.498,280.007 199.350 M293.787 213.187 C 295.972 215.380,297.830 217.104,297.916 217.018 C 298.115 216.818,290.511 209.200,290.113 209.200 C 289.949 209.200,291.602 210.994,293.787 213.187 M308.907 243.641 C 308.858 244.290,309.022 244.435,309.622 244.278 C 310.050 244.166,310.400 244.238,310.400 244.437 C 310.400 244.637,310.209 244.800,309.976 244.800 C 309.743 244.800,309.644 244.948,309.756 245.129 C 310.021 245.557,308.563 246.800,307.795 246.800 C 307.468 246.800,307.200 246.996,307.200 247.235 C 307.200 247.514,307.810 247.593,308.900 247.456 C 309.835 247.338,310.285 247.336,309.900 247.450 C 308.000 248.016,309.657 248.400,314.000 248.400 C 316.933 248.400,318.800 248.556,318.800 248.800 C 318.800 249.040,320.392 249.200,322.776 249.200 C 324.996 249.200,326.862 249.377,327.000 249.600 C 327.523 250.446,332.400 250.085,332.400 249.200 C 332.400 248.667,332.133 248.400,331.600 248.400 C 331.160 248.400,330.800 248.220,330.800 248.000 C 330.800 247.780,330.080 247.600,329.200 247.600 C 328.320 247.600,327.600 247.420,327.600 247.200 C 327.600 246.980,326.981 246.800,326.224 246.800 C 325.467 246.800,324.736 246.620,324.600 246.400 C 324.464 246.180,323.643 246.000,322.776 246.000 C 321.909 246.000,321.200 245.820,321.200 245.600 C 321.200 245.380,320.480 245.200,319.600 245.200 C 318.720 245.200,318.000 245.020,318.000 244.800 C 318.000 244.580,317.100 244.400,316.000 244.400 C 314.900 244.400,314.000 244.227,314.000 244.015 C 314.000 243.803,313.153 243.646,312.117 243.667 C 311.041 243.689,310.170 243.511,310.084 243.252 C 309.825 242.476,308.973 242.758,308.907 243.641 M295.800 247.200 C 295.936 247.420,296.622 247.587,297.324 247.572 C 298.400 247.548,298.474 247.490,297.800 247.200 C 296.684 246.720,295.504 246.720,295.800 247.200 M275.400 251.200 C 275.252 251.439,272.604 251.600,268.800 251.600 C 264.996 251.600,262.348 251.761,262.200 252.000 C 262.057 252.232,259.870 252.400,257.000 252.400 C 254.130 252.400,251.943 252.568,251.800 252.800 C 251.664 253.020,250.498 253.200,249.210 253.200 C 247.710 253.200,246.794 253.380,246.665 253.700 C 246.504 254.100,246.457 254.100,246.432 253.700 C 246.393 253.085,243.758 253.020,243.384 253.626 C 243.207 253.912,243.569 253.967,244.491 253.794 L 245.861 253.537 245.952 255.801 C 246.003 257.046,245.875 258.276,245.669 258.533 C 245.463 258.790,245.189 259.630,245.059 260.400 C 244.929 261.170,244.708 262.477,244.567 263.304 C 244.427 264.131,244.151 264.906,243.956 265.027 C 243.760 265.148,243.600 265.550,243.600 265.921 C 243.600 266.800,239.319 275.403,238.574 276.022 C 238.258 276.284,238.000 276.716,238.000 276.983 C 238.000 277.661,228.835 286.800,228.155 286.800 C 227.850 286.800,227.600 286.950,227.600 287.132 C 227.600 287.315,227.105 287.720,226.500 288.032 C 225.895 288.344,225.304 288.727,225.186 288.883 C 224.774 289.432,218.682 292.400,217.968 292.400 C 217.572 292.400,217.136 292.580,217.000 292.800 C 216.864 293.020,216.324 293.200,215.800 293.200 C 215.276 293.200,214.736 293.380,214.600 293.600 C 214.464 293.820,213.949 294.000,213.456 294.000 C 212.963 294.000,212.389 294.163,212.180 294.363 C 210.893 295.593,193.920 295.642,191.000 294.425 C 190.560 294.241,189.390 293.859,188.400 293.576 C 187.410 293.293,186.429 292.912,186.220 292.730 C 186.011 292.549,185.553 292.400,185.202 292.400 C 184.242 292.400,177.694 289.016,176.368 287.835 C 175.729 287.266,175.036 286.800,174.827 286.800 C 174.260 286.800,165.200 277.573,165.200 276.996 C 165.200 276.722,164.934 276.277,164.609 276.008 C 164.284 275.738,163.526 274.501,162.924 273.259 C 162.322 272.016,161.688 270.940,161.515 270.867 C 161.342 270.793,161.200 270.028,161.200 269.167 C 161.200 267.693,161.129 267.600,160.000 267.600 C 159.340 267.600,158.800 267.780,158.800 268.000 C 158.800 268.220,158.080 268.400,157.200 268.400 C 156.320 268.400,155.600 268.580,155.600 268.800 C 155.600 269.020,154.880 269.200,154.000 269.200 C 153.120 269.200,152.400 269.380,152.400 269.600 C 152.400 269.820,151.781 270.000,151.024 270.000 C 150.267 270.000,149.536 270.180,149.400 270.400 C 149.264 270.620,148.634 270.800,148.000 270.800 C 147.366 270.800,146.736 270.980,146.600 271.200 C 146.464 271.420,145.733 271.600,144.976 271.600 C 144.219 271.600,143.600 271.780,143.600 272.000 C 143.600 272.220,142.981 272.400,142.224 272.400 C 141.467 272.400,140.736 272.580,140.600 272.800 C 140.464 273.020,139.823 273.200,139.176 273.200 C 138.529 273.200,138.000 273.380,138.000 273.600 C 138.000 273.820,137.381 274.000,136.624 274.000 C 135.867 274.000,135.136 274.180,135.000 274.400 C 134.864 274.620,134.267 274.800,133.673 274.800 C 133.018 274.800,132.391 275.122,132.083 275.616 C 131.567 276.442,131.731 277.200,132.427 277.200 C 132.636 277.200,133.372 277.740,134.063 278.400 C 134.754 279.060,135.522 279.600,135.771 279.600 C 136.020 279.600,136.483 279.960,136.800 280.400 C 137.117 280.840,137.657 281.200,138.000 281.200 C 138.343 281.200,138.883 281.560,139.200 282.000 C 139.517 282.440,140.014 282.800,140.305 282.800 C 140.596 282.800,141.220 283.160,141.692 283.600 C 142.164 284.040,142.787 284.400,143.075 284.400 C 143.364 284.400,143.600 284.580,143.600 284.800 C 143.600 285.020,143.960 285.200,144.400 285.200 C 144.840 285.200,145.200 285.380,145.200 285.600 C 145.200 285.820,145.560 286.000,146.000 286.000 C 146.440 286.000,146.800 286.180,146.800 286.400 C 146.800 286.620,147.036 286.800,147.325 286.800 C 147.613 286.800,148.236 287.160,148.708 287.600 C 149.180 288.040,149.923 288.400,150.360 288.400 C 150.796 288.400,151.264 288.580,151.400 288.800 C 151.536 289.020,151.997 289.200,152.424 289.200 C 152.851 289.200,153.200 289.380,153.200 289.600 C 153.200 289.820,153.560 290.000,154.000 290.000 C 154.440 290.000,154.800 290.180,154.800 290.400 C 154.800 290.620,155.160 290.800,155.600 290.800 C 156.040 290.800,156.400 290.980,156.400 291.200 C 156.400 291.420,156.940 291.600,157.600 291.600 C 158.260 291.600,158.800 291.780,158.800 292.000 C 158.800 292.220,159.160 292.400,159.600 292.400 C 160.040 292.400,160.400 292.580,160.400 292.800 C 160.400 293.020,160.940 293.200,161.600 293.200 C 162.260 293.200,162.800 293.380,162.800 293.600 C 162.800 293.820,163.340 294.000,164.000 294.000 C 164.660 294.000,165.200 294.180,165.200 294.400 C 165.200 294.620,165.740 294.800,166.400 294.800 C 167.060 294.800,167.600 294.980,167.600 295.200 C 167.600 295.420,168.320 295.600,169.200 295.600 C 170.080 295.600,170.800 295.780,170.800 296.000 C 170.800 296.220,171.520 296.400,172.400 296.400 C 173.280 296.400,174.000 296.580,174.000 296.800 C 174.000 297.020,174.900 297.200,176.000 297.200 C 177.100 297.200,178.000 297.380,178.000 297.600 C 178.000 297.829,179.200 298.000,180.800 298.000 C 182.400 298.000,183.600 298.171,183.600 298.400 C 183.600 298.644,185.467 298.800,188.400 298.800 C 191.333 298.800,193.200 298.956,193.200 299.200 C 193.200 299.441,194.859 299.600,197.376 299.600 C 199.729 299.600,201.661 299.425,201.800 299.200 C 201.941 298.971,203.996 298.800,206.600 298.800 C 209.204 298.800,211.259 298.629,211.400 298.400 C 211.536 298.180,212.717 298.000,214.024 298.000 C 215.341 298.000,216.400 297.822,216.400 297.600 C 216.400 297.380,217.300 297.200,218.400 297.200 C 219.500 297.200,220.400 297.020,220.400 296.800 C 220.400 296.580,221.109 296.400,221.976 296.400 C 222.843 296.400,223.664 296.220,223.800 296.000 C 223.936 295.780,224.667 295.600,225.424 295.600 C 226.181 295.600,226.800 295.420,226.800 295.200 C 226.800 294.980,227.340 294.800,228.000 294.800 C 228.660 294.800,229.200 294.620,229.200 294.400 C 229.200 294.180,229.729 294.000,230.376 294.000 C 231.023 294.000,231.664 293.820,231.800 293.600 C 231.936 293.380,232.487 293.200,233.024 293.200 C 233.561 293.200,234.000 293.020,234.000 292.800 C 234.000 292.580,234.540 292.400,235.200 292.400 C 235.860 292.400,236.400 292.220,236.400 292.000 C 236.400 291.780,236.760 291.600,237.200 291.600 C 237.640 291.600,238.000 291.420,238.000 291.200 C 238.000 290.980,238.540 290.800,239.200 290.800 C 239.860 290.800,240.400 290.620,240.400 290.400 C 240.400 290.180,240.760 290.000,241.200 290.000 C 241.640 290.000,242.000 289.820,242.000 289.600 C 242.000 289.380,242.360 289.200,242.800 289.200 C 243.240 289.200,243.600 289.020,243.600 288.800 C 243.600 288.580,243.960 288.400,244.400 288.400 C 244.840 288.400,245.200 288.220,245.200 288.000 C 245.200 287.780,245.560 287.600,246.000 287.600 C 246.440 287.600,246.800 287.420,246.800 287.200 C 246.800 286.980,247.078 286.800,247.417 286.800 C 247.756 286.800,248.420 286.440,248.892 286.000 C 249.364 285.560,249.987 285.200,250.275 285.200 C 250.564 285.200,250.800 285.020,250.800 284.800 C 250.800 284.580,251.160 284.400,251.600 284.400 C 252.040 284.400,252.400 284.220,252.400 284.000 C 252.400 283.780,252.636 283.600,252.925 283.600 C 253.213 283.600,253.836 283.240,254.308 282.800 C 254.780 282.360,255.309 282.000,255.483 281.999 C 255.657 281.999,256.430 281.459,257.200 280.800 C 257.970 280.141,258.737 279.601,258.904 279.601 C 259.071 279.600,259.772 279.060,260.463 278.400 C 261.154 277.740,261.872 277.200,262.059 277.200 C 262.246 277.200,263.141 276.480,264.048 275.600 C 264.955 274.720,265.862 274.000,266.064 274.000 C 266.548 274.000,278.000 262.466,278.000 261.978 C 278.000 261.771,278.720 260.859,279.600 259.952 C 280.480 259.045,281.200 258.095,281.200 257.840 C 281.200 257.585,281.560 257.117,282.000 256.800 C 282.440 256.483,282.800 255.969,282.800 255.659 C 282.800 255.348,283.115 254.801,283.500 254.443 C 284.401 253.604,285.200 252.177,285.200 251.405 C 285.200 250.685,275.840 250.489,275.400 251.200 M235.600 254.400 C 235.600 254.875,236.295 254.875,237.400 254.400 C 238.070 254.112,237.989 254.052,236.900 254.028 C 236.185 254.013,235.600 254.180,235.600 254.400 M114.493 259.600 C 114.768 260.040,115.131 260.400,115.300 260.400 C 115.469 260.400,115.382 260.040,115.107 259.600 C 114.832 259.160,114.469 258.800,114.300 258.800 C 114.131 258.800,114.218 259.160,114.493 259.600 M161.949 267.465 C 161.447 268.074,161.485 268.087,162.400 267.611 C 163.741 266.914,163.842 266.800,163.116 266.800 C 162.776 266.800,162.251 267.099,161.949 267.465 M98.000 270.400 C 98.000 270.620,97.640 270.800,97.200 270.800 C 96.729 270.800,96.400 271.067,96.400 271.449 C 96.400 271.962,96.518 272.000,96.964 271.630 C 97.275 271.372,97.624 271.315,97.740 271.502 C 97.856 271.690,97.406 272.049,96.741 272.300 C 95.704 272.691,95.565 272.669,95.766 272.145 C 95.914 271.760,95.815 271.601,95.500 271.717 C 95.225 271.817,95.043 272.096,95.095 272.336 C 95.148 272.575,94.923 272.668,94.595 272.543 C 94.268 272.417,94.000 272.514,94.000 272.757 C 94.000 273.001,93.640 273.200,93.200 273.200 C 92.760 273.200,92.400 273.380,92.400 273.600 C 92.400 273.820,92.164 274.000,91.875 274.000 C 91.587 274.000,90.964 274.360,90.492 274.800 C 90.020 275.240,89.396 275.600,89.105 275.600 C 88.814 275.600,88.317 275.960,88.000 276.400 C 87.683 276.840,87.143 277.200,86.800 277.200 C 86.457 277.200,85.917 277.560,85.600 278.000 C 85.283 278.440,84.743 278.800,84.400 278.800 C 84.057 278.800,83.517 279.160,83.200 279.600 C 82.883 280.040,82.385 280.400,82.094 280.400 C 81.363 280.400,79.600 282.226,79.600 282.982 C 79.600 283.402,79.984 283.600,80.800 283.600 C 81.460 283.600,82.000 283.420,82.000 283.200 C 82.000 282.980,82.540 282.800,83.200 282.800 C 83.860 282.800,84.400 282.620,84.400 282.400 C 84.400 282.180,84.940 282.000,85.600 282.000 C 86.260 282.000,86.800 281.820,86.800 281.600 C 86.800 281.380,87.149 281.200,87.576 281.200 C 88.003 281.200,88.464 281.020,88.600 280.800 C 88.736 280.580,89.287 280.400,89.824 280.400 C 90.361 280.400,90.800 280.220,90.800 280.000 C 90.800 279.780,91.340 279.600,92.000 279.600 C 92.660 279.600,93.200 279.420,93.200 279.200 C 93.200 278.980,93.740 278.800,94.400 278.800 C 95.060 278.800,95.600 278.620,95.600 278.400 C 95.600 278.180,96.140 278.000,96.800 278.000 C 97.564 278.000,98.000 277.796,98.000 277.437 C 98.000 277.083,98.279 276.948,98.755 277.072 C 99.170 277.181,99.648 277.046,99.817 276.773 C 100.031 276.427,99.953 276.374,99.562 276.597 C 99.253 276.773,99.405 276.524,99.900 276.043 C 100.395 275.562,100.800 275.056,100.800 274.918 C 100.800 274.780,100.702 274.765,100.582 274.885 C 99.588 275.879,97.619 271.691,98.520 270.500 C 98.768 270.172,98.743 270.000,98.449 270.000 C 98.202 270.000,98.000 270.180,98.000 270.400 M102.959 275.267 C 102.845 275.450,103.123 275.600,103.576 275.600 C 104.029 275.600,104.400 275.450,104.400 275.267 C 104.400 275.083,104.122 274.933,103.782 274.933 C 103.443 274.933,103.072 275.083,102.959 275.267 " stroke="none" fill="#4c4d4d" fill-rule="evenodd"></path></g></svg>